<?xml version="1.0" encoding="UTF-8" standalone="no"?>
<svg
   xmlns:dc="http://purl.org/dc/elements/1.1/"
   xmlns:cc="http://creativecommons.org/ns#"
   xmlns:rdf="http://www.w3.org/1999/02/22-rdf-syntax-ns#"
   xmlns:svg="http://www.w3.org/2000/svg"
   xmlns="http://www.w3.org/2000/svg"
   xmlns:sodipodi="http://sodipodi.sourceforge.net/DTD/sodipodi-0.dtd"
   xmlns:inkscape="http://www.inkscape.org/namespaces/inkscape"
   enable-background="new 0 0 512 512"
   height="18"
   id="Layer_1"
   version="1.1"
   viewBox="0 0 18 18"
   width="18"
   xml:space="preserve"
   inkscape:version="0.48.4 r9939"
   sodipodi:docname="magnifier.svg"><metadata
     id="metadata11533"><rdf:RDF><cc:Work
         rdf:about=""><dc:format>image/svg+xml</dc:format><dc:type
           rdf:resource="http://purl.org/dc/dcmitype/StillImage" /><dc:title></dc:title></cc:Work></rdf:RDF></metadata><defs
     id="defs11531" /><sodipodi:namedview
     pagecolor="#ffffff"
     bordercolor="#666666"
     borderopacity="1"
     objecttolerance="10"
     gridtolerance="10"
     guidetolerance="10"
     inkscape:pageopacity="0"
     inkscape:pageshadow="2"
     inkscape:window-width="1535"
     inkscape:window-height="876"
     id="namedview11529"
     showgrid="false"
     inkscape:zoom="2.6074563"
     inkscape:cx="-15.428669"
     inkscape:cy="71.307438"
     inkscape:window-x="65"
     inkscape:window-y="24"
     inkscape:window-maximized="1"
     inkscape:current-layer="Layer_1" /><path
     d="m 18,17.057054 -5.191254,-5.191762 c 1.04346,-1.25484 1.671607,-2.8665452 1.671607,-4.6255879 0,-3.998894 -3.241246,-7.2401763 -7.240177,-7.2401763 C 3.242009,-5.086e-4 0,3.2407737 0,7.2396678 c 0,3.9981672 3.242009,7.2401762 7.240176,7.2401762 1.759443,0 3.370748,-0.628146 4.625588,-1.671606 L 17.057017,18 18,17.057054 z M 0.7621162,7.2396678 c 0,-3.5720654 2.9055948,-6.4780602 6.4780598,-6.4780602 3.571739,0 6.478061,2.9059948 6.478061,6.4780602 0,3.5720652 -2.906322,6.4780602 -6.478061,6.4780602 -3.572465,0 -6.4780598,-2.905958 -6.4780598,-6.4780602 z"
     id="path11527"
     style="fill:#ffffff;fill-opacity:1"
     inkscape:connector-curvature="0" /></svg>